<svg width="21" height="20" viewBox="0 0 21 20" fill="none" xmlns="http://www.w3.org/2000/svg">
<path d="M10.9688 0C5.44875 0 0.96875 4.48 0.96875 10C0.96875 15.52 5.44875 20 10.9688 20C16.4888 20 20.9688 15.52 20.9688 10C20.9688 4.48 16.4988 0 10.9688 0ZM9.71875 13.03C9.71875 13.51 9.51875 13.7 9.00875 13.7H7.70875C7.19875 13.7 6.99875 13.51 6.99875 13.03V6.97C6.99875 6.49 7.19875 6.3 7.70875 6.3H8.99875C9.50875 6.3 9.70875 6.49 9.70875 6.97V13.03H9.71875ZM14.9987 13.03C14.9987 13.51 14.7987 13.7 14.2887 13.7H12.9987C12.4887 13.7 12.2887 13.51 12.2887 13.03V6.97C12.2887 6.49 12.4887 6.3 12.9987 6.3H14.2887C14.7987 6.3 14.9987 6.49 14.9987 6.97V13.03Z" fill="#ffffff"/>
</svg>
